<?xml version="1.0" encoding="utf-8"?>
<!-- Generator: Adobe Illustrator 27.6.1, SVG Export Plug-In . SVG Version: 6.00 Build 0)  -->
<svg version="1.1" id="Layer_1" xmlns="http://www.w3.org/2000/svg" xmlns:xlink="http://www.w3.org/1999/xlink" x="0px" y="0px"
	 viewBox="0 0 500 100" style="enable-background:new 0 0 500 100;" xml:space="preserve">
<style type="text/css">
	.st0{fill:#0D5AFF;}
	.st1{fill:none;}
</style>
<path class="st0" d="M44.35,63.55h-9.58v26.73H61.5V80.7C61.5,71.23,53.82,63.55,44.35,63.55z M8.05,63.45h26.73V36.73H8.05V63.45z
	 M34.78,10v26.73h9.58c9.47,0,17.15-7.68,17.15-17.15V10H34.78z"/>
<g>
	<rect x="168.65" y="37.58" class="st1" width="1.01" height="0"/>
	<path d="M87.17,28.39h10.7v15.32l21.61-15.32h17.46L105.9,50.4l31.04,21.48h-17.8L97.87,57.16v14.72h-10.7V28.39z"/>
	<path d="M163.38,28.39h14.18l19.27,43.49H185.2l-14.72-33.25l-14.72,33.25h-11.64L163.38,28.39z"/>
	<path d="M249.35,71.88h-43.09V28.39h10.7v33.45h32.38V71.88z"/>
	<path d="M310.27,53.15c0,2.81-0.45,5.36-1.34,7.66c-0.89,2.3-2.16,4.27-3.81,5.92c-1.65,1.65-3.62,2.92-5.92,3.81
		c-2.3,0.89-4.85,1.34-7.66,1.34h-13.38c-2.81,0-5.36-0.45-7.66-1.34c-2.3-0.89-4.27-2.16-5.92-3.81c-1.65-1.65-2.92-3.62-3.81-5.92
		c-0.89-2.3-1.34-4.85-1.34-7.66V28.39h10.7v24.76c0,2.63,0.74,4.74,2.21,6.32c1.47,1.58,3.41,2.38,5.82,2.38h13.38
		c2.41,0,4.35-0.79,5.82-2.38c1.47-1.58,2.21-3.69,2.21-6.32V28.39h10.7V53.15z"/>
	<path d="M371.18,53.15c0,2.81-0.45,5.36-1.34,7.66c-0.89,2.3-2.16,4.27-3.81,5.92c-1.65,1.65-3.62,2.92-5.92,3.81
		c-2.3,0.89-4.85,1.34-7.66,1.34h-13.38c-2.81,0-5.36-0.45-7.66-1.34c-2.3-0.89-4.27-2.16-5.92-3.81c-1.65-1.65-2.92-3.62-3.81-5.92
		c-0.89-2.3-1.34-4.85-1.34-7.66V28.39h10.7v24.76c0,2.63,0.74,4.74,2.21,6.32c1.47,1.58,3.41,2.38,5.82,2.38h13.38
		c2.41,0,4.35-0.79,5.82-2.38c1.47-1.58,2.21-3.69,2.21-6.32V28.39h10.71V53.15z"/>
	<path d="M381.55,28.39h29.17c3.03,0,5.58,0.32,7.63,0.97c2.05,0.65,3.71,1.55,4.98,2.71c1.27,1.16,2.18,2.57,2.74,4.22
		c0.56,1.65,0.84,3.48,0.84,5.49c0,1.65-0.22,3.11-0.67,4.38c-0.45,1.27-1.07,2.4-1.87,3.38c1.29,1.07,2.29,2.34,2.98,3.81
		c0.69,1.47,1.04,3.19,1.04,5.15c0,2.01-0.27,3.84-0.8,5.49c-0.54,1.65-1.44,3.06-2.71,4.22c-1.27,1.16-2.96,2.06-5.05,2.71
		c-2.1,0.65-4.68,0.97-7.76,0.97h-30.51V28.39z M392.25,45.12h18.53c2.01,0,3.41-0.3,4.22-0.9c0.8-0.6,1.2-1.42,1.2-2.44
		c0-1.03-0.43-1.84-1.3-2.44c-0.87-0.6-2.15-0.9-3.85-0.9h-18.8V45.12z M392.25,61.84h18.73c2.41,0,4.13-0.3,5.15-0.9
		c1.03-0.6,1.54-1.42,1.54-2.44c0-1.03-0.5-1.84-1.51-2.44c-1-0.6-2.6-0.9-4.78-0.9h-19.14V61.84z"/>
	<path d="M453.34,28.39h14.18l19.27,43.49h-11.64l-14.72-33.25l-14.72,33.25h-11.64L453.34,28.39z"/>
</g>
</svg>
